<svg width="18" height="18" viewBox="0 0 18 18" fill="none" xmlns="http://www.w3.org/2000/svg">
<g clip-path="url(#clip0_19_240)">
<path d="M19.8 -1.8H-1.79999V19.8H19.8V-1.8Z" fill="white"/>
<path d="M19.8 -1.8H-1.79999V19.8H19.8V-1.8Z" fill="white"/>
<path d="M19.8 -1.8H-1.79999V19.8H19.8V-1.8Z" fill="url(#paint0_linear_19_240)"/>
<mask id="mask0_19_240" style="mask-type:luminance" maskUnits="userSpaceOnUse" x="3" y="3" width="6" height="12">
<path d="M3.49988 3.479H8.71875V14.5181H3.49988V3.479Z" fill="white"/>
</mask>
<g mask="url(#mask0_19_240)">
<path d="M8.70337 4.8208C8.70337 3.87268 7.80213 3.479 7.31983 3.479C7.03016 3.479 6.45447 3.67493 6.13953 4.0957C5.98499 4.30225 5.91541 4.53699 5.93372 4.78564C5.64661 4.74353 5.17969 4.73328 4.89588 5.19067C4.69153 5.52026 4.67029 5.79126 4.69226 5.96851C4.39417 6.00513 3.86243 6.15161 3.65735 6.72144C3.50281 7.1499 3.52991 7.59192 3.66101 7.94385C3.66101 7.94458 3.66101 7.94531 3.66138 7.94605C3.69068 8.04492 3.74305 8.15186 3.81885 8.25549C3.81995 8.25696 3.82068 8.25842 3.82178 8.25989C3.82727 8.26721 3.8324 8.27454 3.83789 8.28186C3.86902 8.32507 3.90162 8.36609 3.93641 8.40271C3.80127 8.51294 3.72327 8.67224 3.70533 8.96448C3.68482 9.2926 3.82691 9.68884 4.07483 9.89282C3.90564 10.0657 3.75696 10.3261 3.79358 10.8739C3.82691 11.2112 4.01551 11.5536 4.2854 11.7675C4.42713 11.8799 4.58496 11.948 4.745 11.9733C4.75525 11.9766 4.76624 11.9788 4.77759 11.9802C4.78125 11.9806 4.78565 11.9802 4.78968 11.9806C4.79407 11.981 4.79883 11.9824 4.80323 11.9828C4.83033 12.1414 4.91785 12.3182 5.02002 12.4508C5.18738 12.6683 5.40198 12.7943 5.63562 12.8148C5.70411 13.0833 5.85791 13.4861 6.31055 13.541C6.34571 13.7955 6.4336 14.0068 6.57422 14.1709C6.75037 14.3756 7.00049 14.4946 7.29822 14.5151C7.32825 14.5173 7.35828 14.5184 7.38831 14.5184C7.74427 14.5184 8.11194 14.3763 8.36609 14.1368C8.58509 13.9307 8.70484 13.6648 8.70301 13.3894V4.83618C8.70301 4.83105 8.70337 4.82629 8.70337 4.8208ZM8.3855 7.10376C8.2544 7.02686 8.09473 6.96973 7.9292 6.94739C7.48243 6.8877 7.10193 7.09204 6.88221 7.51392C6.63062 8.04492 6.82947 8.44556 6.97046 8.63709C7.1532 8.88538 7.43225 9.05054 7.65674 9.05054C7.67725 9.05054 7.69739 9.04907 7.71717 9.04651C7.80396 9.03369 7.86402 8.95313 7.8512 8.86597C7.83875 8.77918 7.75782 8.71838 7.67139 8.73157C7.59522 8.74255 7.38025 8.65759 7.22571 8.44812C7.10486 8.28406 6.9972 8.0127 7.16602 7.65564C7.35755 7.28906 7.64978 7.23779 7.86109 7.25977C8.15735 7.29016 8.35877 7.45752 8.3855 7.51868V13.3901C8.38733 13.63 8.25769 13.8025 8.14893 13.905C7.93543 14.1061 7.61756 14.2178 7.31983 14.1976C7.17261 14.1877 6.9657 14.1387 6.81482 13.9633C6.65516 13.7772 6.58667 13.4791 6.61634 13.1082C6.63794 12.9379 6.84961 12.6006 7.13233 12.4585C7.29493 12.3772 7.44983 12.3776 7.59302 12.4592C7.66919 12.5028 7.76624 12.4757 7.80945 12.3995C7.85266 12.323 7.8263 12.226 7.75013 12.1827C7.51245 12.0469 7.24952 12.0439 6.9906 12.174C6.98475 12.1769 6.97962 12.1809 6.97412 12.1838C6.90564 12.1135 6.8031 12.0656 6.6742 12.0505C6.45704 12.026 6.2179 12.0996 6.17871 12.2886C6.16077 12.3746 6.21607 12.4589 6.30176 12.4764C6.3772 12.4922 6.45118 12.4515 6.48011 12.3831C6.5105 12.3691 6.5885 12.3552 6.66797 12.3713C6.68152 12.3743 6.69324 12.3776 6.70313 12.3812C6.4823 12.59 6.32666 12.8672 6.30066 13.0752C6.29663 13.1228 6.29517 13.1682 6.29407 13.2136C6.0553 13.1525 5.9795 12.9093 5.91651 12.6218L5.88648 12.4849L5.74732 12.4973C5.54517 12.516 5.39576 12.3999 5.30713 12.2999C5.20606 12.1857 5.1493 12.0568 5.12549 11.9689C5.5719 11.9033 6.12232 11.6246 6.2677 10.8647C6.31714 10.8468 6.36658 10.8252 6.41639 10.7952C6.41895 10.7937 6.42115 10.7915 6.42334 10.7897C6.60498 10.6879 6.79505 10.5231 6.92249 10.3118C7.07117 10.0653 7.11072 9.80017 7.03601 9.54529C7.01148 9.46069 6.92322 9.41235 6.83936 9.43726C6.75513 9.46179 6.70679 9.55042 6.73169 9.63464C6.78113 9.80383 6.75403 9.97632 6.65076 10.147C6.54786 10.318 6.38306 10.4561 6.23804 10.5297C6.23438 10.5319 6.23035 10.5333 6.22669 10.5355C6.18018 10.5582 6.1355 10.5743 6.09632 10.5824C5.75721 10.6469 5.41736 10.3217 5.4137 10.3176C5.35108 10.2565 5.25074 10.2576 5.18958 10.3198C5.12806 10.3824 5.12879 10.4835 5.19141 10.545C5.20972 10.563 5.53089 10.8735 5.93152 10.9087C5.80152 11.3833 5.4657 11.5631 5.19434 11.6294L4.94165 11.6635C4.92591 11.6657 4.91089 11.6657 4.89551 11.6664C4.85962 11.6667 4.83362 11.6653 4.81934 11.6642C4.81787 11.6642 4.81641 11.6642 4.81495 11.6638C4.81238 11.6638 4.81018 11.6635 4.80909 11.6635C4.80872 11.6635 4.80835 11.6635 4.80799 11.6635C4.67286 11.6462 4.5597 11.5792 4.48206 11.5177C4.28064 11.358 4.13416 11.0929 4.10962 10.8475C4.073 10.2982 4.24878 10.1517 4.43482 9.99646L4.69629 9.77783L4.38648 9.70496C4.18653 9.65808 4.00269 9.29443 4.0221 8.98425C4.03785 8.72681 4.09607 8.65869 4.2063 8.6023C4.37037 8.69971 4.57142 8.77441 4.81348 8.80774C4.86951 8.81543 4.92371 8.81909 4.97681 8.81909C5.15918 8.81909 5.32251 8.77588 5.4657 8.71326C5.53821 8.75684 5.68872 8.88501 5.67957 9.05969C5.66639 9.32373 5.48145 9.52405 5.47705 9.52881C5.41663 9.59216 5.41846 9.69251 5.48145 9.75366C5.51221 9.78333 5.55213 9.79797 5.59168 9.79797C5.63343 9.79797 5.67481 9.78186 5.70594 9.74927C5.71692 9.73792 5.97693 9.46326 5.99671 9.07617C6.00806 8.85315 5.89454 8.66711 5.76014 8.5415C5.96485 8.38953 6.08423 8.22913 6.09412 8.21521C6.14576 8.14417 6.13001 8.04456 6.05896 7.99292C5.98792 7.94128 5.88868 7.95703 5.83741 8.02844C5.83484 8.03174 5.66382 8.26209 5.38477 8.39978H5.3844V8.40015C5.23609 8.47302 5.05774 8.52026 4.85669 8.49243C4.69519 8.47046 4.56006 8.42615 4.44654 8.36975L4.33484 8.30786C4.22498 8.23682 4.14185 8.15515 4.08179 8.07532C3.89283 7.79407 3.78223 7.31104 3.95581 6.82947C4.1294 6.3468 4.65015 6.28345 4.82813 6.27576L5.29761 6.76172C5.1958 6.82068 5.07422 6.85657 4.92994 6.86316C4.84241 6.86719 4.77466 6.94189 4.77869 7.02942C4.78235 7.11475 4.85267 7.1814 4.93689 7.1814C4.93946 7.1814 4.94202 7.1814 4.94422 7.18103C5.2544 7.16675 5.50196 7.05908 5.67994 6.86023C5.99048 6.51379 5.96375 6.01904 5.96265 5.99817C5.95716 5.91064 5.88245 5.84436 5.79456 5.84912C5.70704 5.85461 5.64038 5.93005 5.64588 6.01758C5.64588 6.02087 5.65796 6.30286 5.52246 6.53723L5.02881 6.02637C5.00501 5.96448 4.93909 5.72314 5.16504 5.35876C5.36756 5.03247 5.70667 5.06506 6.00843 5.12073C6.02747 5.12439 6.04505 5.12769 6.06153 5.13025L6.44898 5.46387C6.47901 5.48987 6.51563 5.50232 6.55225 5.50232C6.59693 5.50232 6.64124 5.48364 6.67273 5.44702C6.72986 5.38037 6.72217 5.28003 6.65589 5.22253L6.27173 4.89185C6.219 4.66956 6.25892 4.46631 6.39331 4.28687C6.63758 3.96094 7.11878 3.79724 7.31983 3.79724C7.60401 3.79724 8.38367 4.03931 8.38587 4.81787C8.38587 4.8186 8.38587 4.8197 8.38587 4.82043V4.83215C8.38074 5.53052 7.9281 5.69605 7.87317 5.71289C7.80249 5.70886 7.7417 5.75391 7.71936 5.82166C7.69153 5.90479 7.73658 5.99487 7.81971 6.02271C7.9618 6.06995 8.19507 5.90662 8.22107 5.88757C8.26978 5.85242 8.32764 5.80334 8.38587 5.73926V7.10376H8.3855Z" fill="white"/>
</g>
<mask id="mask1_19_240" style="mask-type:luminance" maskUnits="userSpaceOnUse" x="9" y="3" width="6" height="12">
<path d="M9.09375 3.479H14.3438V14.5181H9.09375V3.479Z" fill="white"/>
</mask>
<g mask="url(#mask1_19_240)">
<path d="M14.22 8.96741L14.2189 8.95642C14.187 8.67297 14.0797 8.50928 13.9501 8.40381C14.283 8.05481 14.465 7.37183 14.2306 6.72144C14.0251 6.15161 13.4938 6.00513 13.1953 5.96851C13.2177 5.79126 13.1964 5.5199 12.9921 5.19067C12.709 4.73474 12.2443 4.74353 11.9572 4.78491C11.9835 4.51428 11.9147 4.26306 11.7539 4.04846C11.4609 3.65735 10.934 3.479 10.5681 3.479C10.0854 3.479 9.1842 3.87268 9.1842 4.8208C9.1842 4.82556 9.18457 4.82996 9.18457 4.83472V13.3883C9.18274 13.6648 9.30249 13.9307 9.52185 14.1368C9.776 14.3763 10.1433 14.5181 10.4993 14.5181C10.5293 14.5181 10.5597 14.5173 10.5894 14.5151C11.1339 14.4778 11.4946 14.1167 11.5767 13.541C12.0278 13.4868 12.1824 13.0869 12.2512 12.8181C12.4816 12.809 12.6855 12.7233 12.8357 12.5698C12.9873 12.4149 13.0767 12.1963 13.0876 11.9641C13.6864 11.8777 14.0442 11.525 14.1002 10.9589C14.1427 10.5293 14.0402 10.1708 13.7955 9.89026C14.0321 9.72437 14.2419 9.46033 14.22 8.96741ZM9.78662 13.6011C9.70569 13.6011 9.64014 13.5352 9.64014 13.4542C9.64014 13.3733 9.70569 13.3074 9.78662 13.3074C9.86755 13.3074 9.93311 13.3733 9.93311 13.4542C9.93311 13.5352 9.86755 13.6011 9.78662 13.6011ZM9.71704 13.7307V13.8831C9.6449 13.8102 9.56873 13.7076 9.52954 13.5758C9.56543 13.6523 9.63391 13.7095 9.71704 13.7307ZM13.4641 9.71887L13.2528 9.8291L13.4359 9.98218C13.611 10.1287 13.838 10.3861 13.7845 10.9277C13.7388 11.3859 13.4542 11.6265 12.9144 11.6624L12.7493 11.6733L12.7672 11.8385C12.7885 12.0341 12.7295 12.2241 12.609 12.3472C12.52 12.438 12.4006 12.4896 12.2596 12.4988L12.2098 10.8387L12.6705 10.4194C12.7291 10.4594 12.8002 10.4828 12.8763 10.4828C13.0789 10.4828 13.2437 10.3176 13.2437 10.1147C13.2437 9.9115 13.0789 9.74634 12.8763 9.74634C12.6738 9.74634 12.509 9.9115 12.509 10.1147C12.509 10.1909 12.5325 10.262 12.572 10.3206L12.0688 10.7787L12.1205 12.4955L12.0015 12.4849L11.9711 12.6218C11.9015 12.9393 11.8158 13.203 11.5126 13.2272V11.7909L11.3115 11.6016V10.8721L11.7532 10.4355C11.7997 10.4681 11.8557 10.4875 11.9165 10.4875C12.074 10.4875 12.2018 10.3594 12.2018 10.2015C12.2018 10.0437 12.074 9.91516 11.9165 9.91516C11.759 9.91516 11.6309 10.0437 11.6309 10.2015C11.6309 10.2477 11.6429 10.2909 11.6627 10.3297L11.1727 10.8138V11.4708L10.9098 11.2236V10.2275C11.0332 10.196 11.1255 10.0844 11.1255 9.95105C11.1255 9.79321 10.9973 9.66467 10.8402 9.66467C10.6827 9.66467 10.5546 9.79321 10.5546 9.95105C10.5546 10.0844 10.6469 10.196 10.7706 10.2275V11.2837L11.3738 11.851V13.2396C11.3591 13.2455 11.3459 13.2535 11.3339 13.2634C11.3317 13.2656 11.3287 13.2671 11.3265 13.2689C11.3262 13.2697 11.3258 13.27 11.3251 13.2708C11.3031 13.2913 11.2874 13.3176 11.2797 13.348C11.2789 13.3513 11.2786 13.355 11.2782 13.3583C11.2767 13.3649 11.2753 13.3715 11.2749 13.3784C11.2537 13.7336 11.12 13.9827 10.8911 14.1075L10.6117 13.849V13.1635C10.7355 13.132 10.8278 13.0206 10.8278 12.887C10.8278 12.7291 10.6996 12.6006 10.5425 12.6006C10.385 12.6006 10.2568 12.7291 10.2568 12.887C10.2568 13.0203 10.3491 13.132 10.4729 13.1635V13.9102L10.749 14.1658C10.6926 14.1823 10.6322 14.1932 10.5677 14.1976C10.3206 14.2145 10.0602 14.139 9.8562 13.998V13.7307C9.97998 13.6992 10.0719 13.5879 10.0719 13.4542C10.0719 13.2964 9.94409 13.1678 9.78662 13.1678C9.6394 13.1678 9.51892 13.281 9.50427 13.4246C9.50354 13.4128 9.50208 13.4015 9.50208 13.389V12.0297L9.62842 12.167H10.4055C10.4381 12.2963 10.5542 12.3929 10.693 12.3929C10.8574 12.3929 10.9911 12.2589 10.9911 12.0945C10.9911 11.9297 10.8574 11.7957 10.693 11.7957C10.5542 11.7957 10.4381 11.8923 10.4055 12.0216H9.69177L9.50208 11.8154V10.9347H9.76685C9.79907 11.0779 9.92688 11.1855 10.0792 11.1855C10.2561 11.1855 10.4004 11.0413 10.4004 10.8636C10.4004 10.686 10.2561 10.5417 10.0792 10.5417C9.92688 10.5417 9.79907 10.6494 9.76685 10.7926H9.50208V8.70557C9.66357 8.70447 9.81702 8.7041 9.97778 8.7041V9.40759C9.88696 9.4281 9.81921 9.5094 9.81921 9.60645C9.81921 9.71924 9.9104 9.81079 10.0228 9.81079C10.1353 9.81079 10.2264 9.71924 10.2264 9.60645C10.2264 9.5094 10.1583 9.4281 10.0679 9.40759V8.73486C10.2312 8.89966 10.3905 9.06482 10.5502 9.23108L10.6121 9.29517L10.6769 9.23254L10.615 9.16809C10.5253 9.07507 10.4359 8.98242 10.3462 8.88977H11.0475C11.068 8.98059 11.1489 9.04871 11.2456 9.04871C11.358 9.04871 11.4492 8.95715 11.4492 8.84473C11.4492 8.73193 11.358 8.64038 11.2456 8.64038C11.1489 8.64038 11.068 8.7085 11.0475 8.79968H10.2572C10.2012 8.74219 10.1451 8.68469 10.088 8.6272L10.0748 8.61401H10.0562C9.86536 8.61401 9.68958 8.61401 9.50208 8.61511V8.39392C10.0195 8.38953 10.5381 8.39099 11.0471 8.39868C11.0676 8.48987 11.1486 8.55835 11.2456 8.55835C11.358 8.55835 11.4496 8.4668 11.4496 8.354C11.4496 8.24121 11.358 8.14966 11.2456 8.14966C11.1489 8.14966 11.0684 8.21777 11.0475 8.30823C10.5381 8.3009 10.0195 8.29944 9.50208 8.30383V7.91418L9.63135 8.05481H10.1136C10.1338 8.13501 10.2056 8.1947 10.292 8.1947C10.3938 8.1947 10.4766 8.11157 10.4766 8.0094C10.4766 7.90723 10.3938 7.8241 10.292 7.8241C10.2056 7.8241 10.1338 7.88416 10.1136 7.96436H9.6709L9.50208 7.78125V7.27588L9.7251 7.17041L10.6033 7.49744L11.7755 6.94299C11.8055 6.98145 11.8455 7.01147 11.8927 7.02832C11.9216 7.03894 11.9513 7.04407 11.9813 7.04407C12.019 7.04407 12.0571 7.03564 12.0923 7.0188C12.2227 6.95728 12.2787 6.8009 12.2172 6.67017C12.1875 6.60681 12.1351 6.55884 12.0692 6.5354C12.0037 6.5116 11.9326 6.51489 11.8696 6.54492C11.8063 6.57458 11.7587 6.62732 11.7352 6.69324C11.718 6.74048 11.7158 6.79065 11.7264 6.83826L10.5981 7.37183L9.87122 7.1012L10.5571 6.77673L10.7538 6.21826L11.6426 5.79822C11.6924 5.86194 11.7678 5.89966 11.8469 5.89966C11.8843 5.89966 11.9224 5.8916 11.9579 5.87476C12.0883 5.81287 12.1443 5.65649 12.0828 5.52576C12.0216 5.39539 11.8652 5.33936 11.7352 5.40088C11.6228 5.45398 11.566 5.57739 11.5917 5.69421L10.6611 6.1344L10.4641 6.69287L9.50208 7.14807V5.73926C9.5603 5.80334 9.6178 5.85242 9.6665 5.88757C9.6925 5.90625 9.92505 6.07068 10.0682 6.02271C10.1514 5.99524 10.196 5.90479 10.1682 5.82166C10.1462 5.755 10.0844 5.71289 10.0177 5.71289C10.0166 5.71289 10.0155 5.71289 10.0144 5.71289C9.95947 5.69568 9.50647 5.53052 9.50208 4.83105V4.82043C9.50208 4.8197 9.50171 4.81897 9.50171 4.81824C9.50354 4.11182 10.1444 3.84778 10.4758 3.80457L10.3737 3.89905V4.66187C10.2484 4.6886 10.1543 4.80029 10.1543 4.93359C10.1543 5.08667 10.2788 5.21118 10.4315 5.21118C10.5842 5.21118 10.7087 5.08667 10.7087 4.93359C10.7087 4.80029 10.6143 4.6886 10.489 4.66187V3.94995L10.6487 3.80237C10.938 3.82617 11.3013 3.97412 11.5001 4.23926C11.6393 4.42529 11.6774 4.64539 11.6158 4.89404L11.4316 5.07312C11.369 5.13464 11.3676 5.23535 11.4287 5.29834C11.4598 5.3302 11.5009 5.34631 11.5422 5.34631C11.5822 5.34631 11.6221 5.33167 11.6528 5.30164L11.829 5.12988C11.8447 5.12732 11.8612 5.12439 11.8792 5.12109C12.1813 5.06506 12.52 5.03247 12.7225 5.35876C12.9423 5.71289 12.8862 5.9502 12.8621 6.01831L12.6987 6.15674C12.6317 6.2135 12.6233 6.31384 12.6801 6.38086C12.7115 6.41821 12.7562 6.43726 12.8013 6.43726C12.8375 6.43726 12.8738 6.4248 12.9034 6.3999L13.0503 6.27539C13.2158 6.28088 13.7318 6.33728 13.9193 6.8009H12.5446L11.766 7.60474V8.41772C11.6298 8.44885 11.5272 8.5708 11.5272 8.71692C11.5272 8.88647 11.6649 9.02454 11.8337 9.02454C12.0029 9.02454 12.1406 8.88647 12.1406 8.71692C12.1406 8.5708 12.0381 8.44885 11.9019 8.41772V7.66003L12.6017 6.93677H13.9655C14.0629 7.29016 14.0149 7.6355 13.9036 7.89331H12.7991L12.3483 8.41516V8.91467C12.2117 8.9458 12.1091 9.06775 12.1091 9.21387C12.1091 9.38342 12.2468 9.52148 12.416 9.52148C12.5848 9.52148 12.7225 9.38342 12.7225 9.21387C12.7225 9.06775 12.6204 8.9458 12.4838 8.91467V8.46606L12.861 8.02917H13.8344C13.7725 8.13281 13.7007 8.21338 13.626 8.26355H13.1744C13.0869 8.26355 13.0159 8.33496 13.0159 8.42285C13.0159 8.51074 13.0869 8.58179 13.1744 8.58179H13.6366C13.7897 8.65576 13.8746 8.74585 13.9032 8.98682C13.9197 9.39661 13.7472 9.57092 13.4641 9.71887ZM12.6482 10.1147C12.6482 9.9884 12.7504 9.8855 12.8763 9.8855C13.0023 9.8855 13.1049 9.9884 13.1049 10.1147C13.1049 10.2407 13.0023 10.3436 12.8763 10.3436C12.7504 10.3436 12.6482 10.2407 12.6482 10.1147ZM11.77 10.2015C11.77 10.1206 11.8356 10.0547 11.9165 10.0547C11.9974 10.0547 12.063 10.1206 12.063 10.2015C12.063 10.2825 11.9974 10.3484 11.9165 10.3484C11.8356 10.3484 11.77 10.2825 11.77 10.2015ZM10.8402 10.0975C10.7593 10.0975 10.6937 10.032 10.6937 9.95105C10.6937 9.86975 10.7593 9.8042 10.8402 9.8042C10.9208 9.8042 10.9863 9.86975 10.9863 9.95105C10.9863 10.032 10.9208 10.0975 10.8402 10.0975ZM10.5425 13.0338C10.4615 13.0338 10.396 12.9679 10.396 12.887C10.396 12.806 10.4615 12.7401 10.5425 12.7401C10.623 12.7401 10.6886 12.806 10.6886 12.887C10.6886 12.9679 10.623 13.0338 10.5425 13.0338ZM10.5406 12.0945C10.5406 12.0099 10.6091 11.9414 10.6934 11.9414C10.7776 11.9414 10.8461 12.0099 10.8461 12.0945C10.8461 12.1787 10.7776 12.2476 10.6934 12.2476C10.6091 12.2476 10.5406 12.1787 10.5406 12.0945ZM9.90015 10.8636C9.90015 10.7648 9.98035 10.6838 10.0792 10.6838C10.1781 10.6838 10.2587 10.7648 10.2587 10.8636C10.2587 10.9629 10.1781 11.0435 10.0792 11.0435C9.98035 11.0435 9.90015 10.9629 9.90015 10.8636ZM10.0228 9.49255C10.0854 9.49255 10.1367 9.54382 10.1367 9.60645C10.1367 9.66943 10.0854 9.7207 10.0228 9.7207C9.96021 9.7207 9.90894 9.66943 9.90894 9.60645C9.90894 9.54382 9.96021 9.49255 10.0228 9.49255ZM11.1317 8.84473C11.1317 8.78174 11.183 8.73047 11.2456 8.73047C11.3082 8.73047 11.3595 8.78174 11.3595 8.84473C11.3595 8.90771 11.3082 8.95862 11.2456 8.95862C11.183 8.95862 11.1317 8.90735 11.1317 8.84473ZM11.1317 8.354C11.1317 8.29102 11.183 8.24011 11.2456 8.24011C11.3082 8.24011 11.3595 8.29102 11.3595 8.354C11.3595 8.41699 11.3082 8.46826 11.2456 8.46826C11.183 8.46826 11.1317 8.41699 11.1317 8.354ZM10.1971 8.0094C10.1971 7.95703 10.2396 7.91455 10.292 7.91455C10.3444 7.91455 10.3868 7.95703 10.3868 8.0094C10.3868 8.06177 10.3444 8.10461 10.292 8.10461C10.2396 8.10461 10.1971 8.06213 10.1971 8.0094ZM11.8436 6.73242C11.8568 6.6958 11.8835 6.66614 11.9187 6.64966C11.9385 6.64014 11.9597 6.63538 11.981 6.63538C11.9974 6.63538 12.0143 6.63831 12.0304 6.64417C12.067 6.65735 12.0963 6.68408 12.1132 6.71924C12.1472 6.79248 12.1161 6.87964 12.0432 6.91406C12.0081 6.93054 11.9685 6.93274 11.9315 6.91956C11.8949 6.90637 11.8656 6.87964 11.8491 6.84412C11.8323 6.80896 11.8304 6.76904 11.8436 6.73242ZM11.7843 5.50525C11.8044 5.49573 11.8253 5.49133 11.8462 5.49133C11.9011 5.49133 11.9539 5.52246 11.9788 5.5752C12.0128 5.64807 11.9817 5.7356 11.9088 5.77002C11.8359 5.80444 11.7488 5.77295 11.7144 5.70007C11.6803 5.6272 11.7114 5.53967 11.7843 5.50525ZM10.4315 4.77136C10.5205 4.77136 10.593 4.84424 10.593 4.93359C10.593 5.02295 10.5205 5.09583 10.4315 5.09583C10.3422 5.09583 10.2697 5.02295 10.2697 4.93359C10.2697 4.84424 10.3422 4.77136 10.4315 4.77136ZM11.8337 8.54517C11.9282 8.54517 12.0051 8.62244 12.0051 8.71692C12.0051 8.81177 11.9282 8.88867 11.8337 8.88867C11.7393 8.88867 11.6627 8.81177 11.6627 8.71692C11.6627 8.62244 11.7393 8.54517 11.8337 8.54517ZM12.4156 9.04211C12.5101 9.04211 12.587 9.11938 12.587 9.21387C12.587 9.30872 12.5101 9.38562 12.4156 9.38562C12.3215 9.38562 12.2446 9.30872 12.2446 9.21387C12.2446 9.11938 12.3215 9.04211 12.4156 9.04211Z" fill="white"/>
</g>
</g>
<defs>
<linearGradient id="paint0_linear_19_240" x1="-1.2677" y1="1.81047" x2="19.2677" y2="16.1895" gradientUnits="userSpaceOnUse">
<stop stop-color="#FF66C4"/>
<stop offset="0.0078125" stop-color="#FF66C4"/>
<stop offset="0.015625" stop-color="#FF67C3"/>
<stop offset="0.0234375" stop-color="#FF68C2"/>
<stop offset="0.03125" stop-color="#FF69C1"/>
<stop offset="0.0390625" stop-color="#FF6AC0"/>
<stop offset="0.046875" stop-color="#FF6BBF"/>
<stop offset="0.0546875" stop-color="#FF6CBF"/>
<stop offset="0.0625" stop-color="#FF6DBE"/>
<stop offset="0.0703125" stop-color="#FF6EBD"/>
<stop offset="0.078125" stop-color="#FF6FBC"/>
<stop offset="0.0859375" stop-color="#FF70BB"/>
<stop offset="0.09375" stop-color="#FF71BA"/>
<stop offset="0.101562" stop-color="#FF72BA"/>
<stop offset="0.109375" stop-color="#FF73B9"/>
<stop offset="0.117187" stop-color="#FF74B8"/>
<stop offset="0.125" stop-color="#FF75B7"/>
<stop offset="0.132812" stop-color="#FF75B6"/>
<stop offset="0.140625" stop-color="#FF76B5"/>
<stop offset="0.148438" stop-color="#FF77B5"/>
<stop offset="0.15625" stop-color="#FF78B4"/>
<stop offset="0.164062" stop-color="#FF79B3"/>
<stop offset="0.171875" stop-color="#FF7AB2"/>
<stop offset="0.179688" stop-color="#FF7BB1"/>
<stop offset="0.1875" stop-color="#FF7CB0"/>
<stop offset="0.195312" stop-color="#FF7DB0"/>
<stop offset="0.203125" stop-color="#FF7EAF"/>
<stop offset="0.210937" stop-color="#FF7FAE"/>
<stop offset="0.21875" stop-color="#FF80AD"/>
<stop offset="0.226562" stop-color="#FF81AC"/>
<stop offset="0.234375" stop-color="#FF82AB"/>
<stop offset="0.242187" stop-color="#FF83AB"/>
<stop offset="0.25" stop-color="#FF84AA"/>
<stop offset="0.257812" stop-color="#FF84A9"/>
<stop offset="0.265625" stop-color="#FF85A8"/>
<stop offset="0.273437" stop-color="#FF86A7"/>
<stop offset="0.28125" stop-color="#FF87A6"/>
<stop offset="0.289062" stop-color="#FF88A6"/>
<stop offset="0.296875" stop-color="#FF89A5"/>
<stop offset="0.304687" stop-color="#FF8AA4"/>
<stop offset="0.3125" stop-color="#FF8BA3"/>
<stop offset="0.320312" stop-color="#FF8CA2"/>
<stop offset="0.328125" stop-color="#FF8DA1"/>
<stop offset="0.335937" stop-color="#FF8EA1"/>
<stop offset="0.34375" stop-color="#FF8FA0"/>
<stop offset="0.351562" stop-color="#FF909F"/>
<stop offset="0.359375" stop-color="#FF919E"/>
<stop offset="0.367187" stop-color="#FF929D"/>
<stop offset="0.375" stop-color="#FF939C"/>
<stop offset="0.382812" stop-color="#FF949C"/>
<stop offset="0.390625" stop-color="#FF949B"/>
<stop offset="0.398437" stop-color="#FF959A"/>
<stop offset="0.40625" stop-color="#FF9699"/>
<stop offset="0.411837" stop-color="#FF9798"/>
<stop offset="0.414062" stop-color="#FF9898"/>
<stop offset="0.421875" stop-color="#FF9897"/>
<stop offset="0.429687" stop-color="#FF9996"/>
<stop offset="0.4375" stop-color="#FF9A96"/>
<stop offset="0.445312" stop-color="#FF9B95"/>
<stop offset="0.453125" stop-color="#FF9C94"/>
<stop offset="0.460937" stop-color="#FF9D93"/>
<stop offset="0.46875" stop-color="#FF9E92"/>
<stop offset="0.476562" stop-color="#FF9F91"/>
<stop offset="0.484375" stop-color="#FFA091"/>
<stop offset="0.492187" stop-color="#FFA190"/>
<stop offset="0.5" stop-color="#FFA28F"/>
<stop offset="0.507812" stop-color="#FFA38E"/>
<stop offset="0.515625" stop-color="#FFA38D"/>
<stop offset="0.523438" stop-color="#FFA48C"/>
<stop offset="0.53125" stop-color="#FFA58C"/>
<stop offset="0.539062" stop-color="#FFA68B"/>
<stop offset="0.546875" stop-color="#FFA78A"/>
<stop offset="0.554688" stop-color="#FFA889"/>
<stop offset="0.5625" stop-color="#FFA988"/>
<stop offset="0.570313" stop-color="#FFAA87"/>
<stop offset="0.578125" stop-color="#FFAB87"/>
<stop offset="0.585938" stop-color="#FFAC86"/>
<stop offset="0.588163" stop-color="#FFAD85"/>
<stop offset="0.59375" stop-color="#FFAD85"/>
<stop offset="0.601562" stop-color="#FFAE84"/>
<stop offset="0.609375" stop-color="#FFAF83"/>
<stop offset="0.617188" stop-color="#FFB082"/>
<stop offset="0.625" stop-color="#FFB182"/>
<stop offset="0.632813" stop-color="#FFB281"/>
<stop offset="0.640625" stop-color="#FFB280"/>
<stop offset="0.648438" stop-color="#FFB37F"/>
<stop offset="0.65625" stop-color="#FFB47E"/>
<stop offset="0.664062" stop-color="#FFB57D"/>
<stop offset="0.671875" stop-color="#FFB67D"/>
<stop offset="0.679688" stop-color="#FFB77C"/>
<stop offset="0.6875" stop-color="#FFB87B"/>
<stop offset="0.695313" stop-color="#FFB97A"/>
<stop offset="0.703125" stop-color="#FFBA79"/>
<stop offset="0.710938" stop-color="#FFBB78"/>
<stop offset="0.71875" stop-color="#FFBC78"/>
<stop offset="0.726562" stop-color="#FFBD77"/>
<stop offset="0.734375" stop-color="#FFBE76"/>
<stop offset="0.742188" stop-color="#FFBF75"/>
<stop offset="0.75" stop-color="#FFC074"/>
<stop offset="0.757813" stop-color="#FFC173"/>
<stop offset="0.765625" stop-color="#FFC173"/>
<stop offset="0.773438" stop-color="#FFC272"/>
<stop offset="0.78125" stop-color="#FFC371"/>
<stop offset="0.789062" stop-color="#FFC470"/>
<stop offset="0.796875" stop-color="#FFC56F"/>
<stop offset="0.804688" stop-color="#FFC66E"/>
<stop offset="0.8125" stop-color="#FFC76D"/>
<stop offset="0.820313" stop-color="#FFC86D"/>
<stop offset="0.828125" stop-color="#FFC96C"/>
<stop offset="0.835938" stop-color="#FFCA6B"/>
<stop offset="0.84375" stop-color="#FFCB6A"/>
<stop offset="0.851562" stop-color="#FFCC69"/>
<stop offset="0.859375" stop-color="#FFCD68"/>
<stop offset="0.867188" stop-color="#FFCE68"/>
<stop offset="0.875" stop-color="#FFCF67"/>
<stop offset="0.882812" stop-color="#FFD066"/>
<stop offset="0.890625" stop-color="#FFD065"/>
<stop offset="0.898438" stop-color="#FFD164"/>
<stop offset="0.90625" stop-color="#FFD263"/>
<stop offset="0.914062" stop-color="#FFD363"/>
<stop offset="0.921875" stop-color="#FFD462"/>
<stop offset="0.929688" stop-color="#FFD561"/>
<stop offset="0.9375" stop-color="#FFD660"/>
<stop offset="0.945312" stop-color="#FFD75F"/>
<stop offset="0.953125" stop-color="#FFD85E"/>
<stop offset="0.960938" stop-color="#FFD95E"/>
<stop offset="0.96875" stop-color="#FFDA5D"/>
<stop offset="0.976562" stop-color="#FFDB5C"/>
<stop offset="0.984375" stop-color="#FFDC5B"/>
<stop offset="0.992188" stop-color="#FFDD5A"/>
<stop offset="1" stop-color="#FFDE59"/>
</linearGradient>
<clipPath id="clip0_19_240">
<rect width="18" height="18" fill="white"/>
</clipPath>
</defs>
</svg>
