<svg width="150" height="150" viewBox="0 0 150 150" fill="none" xmlns="http://www.w3.org/2000/svg">
<rect width="150" height="150" fill="white"/>
<path d="M110.992 86.1921C110.7 86.0518 99.7642 80.6669 97.8211 79.9675C97.0277 79.6826 96.1779 79.4046 95.274 79.4046C93.7974 79.4046 92.5569 80.1404 91.5907 81.5859C90.4983 83.2096 87.1915 87.075 86.1698 88.2297C86.0363 88.3822 85.8542 88.5643 85.7451 88.5643C85.6472 88.5643 83.9548 87.8674 83.4425 87.6448C71.7118 82.5492 62.8077 70.2955 61.5868 68.2291C61.4124 67.932 61.4051 67.7971 61.4037 67.7971C61.4465 67.6398 61.841 67.2443 62.0446 67.0403C62.6402 66.451 63.2855 65.6742 63.9098 64.9227C64.2055 64.5667 64.5016 64.2102 64.7923 63.8742C65.6982 62.8203 66.1014 62.0021 66.5689 61.0544L66.8139 60.562C67.9555 58.294 66.9805 56.38 66.6654 55.762C66.4068 55.2448 61.7894 44.101 61.2985 42.9302C60.118 40.105 58.558 38.7896 56.3904 38.7896C56.1892 38.7896 56.3904 38.7896 55.5468 38.8252C54.5197 38.8685 48.9264 39.6049 46.4533 41.1638C43.8308 42.8172 39.3941 48.0877 39.3941 57.3565C39.3941 65.6985 44.6879 73.575 46.9608 76.5706C47.0173 76.6461 47.121 76.7995 47.2715 77.0197C55.9759 89.7317 66.827 99.1524 77.8272 103.547C88.4173 107.777 93.4321 108.266 96.2831 108.266C96.2836 108.266 96.2836 108.266 96.2836 108.266C97.4816 108.266 98.4405 108.172 99.2865 108.089L99.8232 108.038C103.482 107.713 111.521 103.547 113.35 98.4653C114.791 94.4625 115.17 90.0891 114.212 88.502C113.555 87.4227 112.424 86.8797 110.992 86.1921Z" fill="#5CE11D"/>
<path d="M76.3314 0C35.7067 0 2.65606 32.8023 2.65606 73.1216C2.65606 86.1623 6.146 98.9274 12.7572 110.1L0.103134 147.427C-0.132581 148.123 0.0427441 148.892 0.557517 149.416C0.929108 149.795 1.43317 150 1.94794 150C2.14518 150 2.34388 149.97 2.53771 149.908L41.4598 137.54C52.1108 143.231 64.1488 146.235 76.3319 146.235C116.953 146.235 150 113.437 150 73.1216C150 32.8023 116.953 0 76.3314 0ZM76.3314 131.004C64.8676 131.004 53.7642 127.693 44.2197 121.43C43.8988 121.219 43.5262 121.111 43.1512 121.111C42.953 121.111 42.7543 121.142 42.561 121.203L23.0634 127.401L29.3575 108.831C29.5611 108.23 29.4593 107.568 29.0843 107.055C21.8161 97.124 17.9741 85.3904 17.9741 73.1216C17.9741 41.2013 44.153 15.2318 76.331 15.2318C108.505 15.2318 134.681 41.2013 134.681 73.1216C134.681 105.038 108.506 131.004 76.3314 131.004Z" fill="#5CE11D"/>
</svg>
