<svg width="141" height="141" viewBox="0 0 141 141" fill="none" xmlns="http://www.w3.org/2000/svg">
<path d="M132.496 62.3264H128.86V50.972C128.86 43.1569 121.753 36.8157 112.992 36.8157L75.6415 36.8168V25.1683C81.0958 23.251 84.897 18.533 84.897 13.0764C84.897 5.85074 78.451 0.0999603 70.3519 0.0999603C62.2528 0.0999603 55.8068 5.85074 55.8068 13.0764C55.8068 18.532 59.608 23.2511 65.0623 25.1683V36.8168H27.7085C18.9486 36.8168 11.8409 43.1568 11.8409 50.9731V62.3274H8.20467C3.90763 62.3274 0.271423 65.5715 0.271423 69.4051V86.0679C0.271423 89.9014 3.90763 93.1455 8.20467 93.1455H11.8409V133.106C11.8409 139.299 20.105 142.396 25.0637 138.119L46.0549 119.834H112.829C121.589 119.834 128.696 113.494 128.696 105.678V93.2921H132.333C136.63 93.2921 140.266 90.0481 140.266 86.2145V69.5517C140.432 65.5702 136.796 62.3261 132.498 62.3261L132.496 62.3264ZM40.9299 64.3907C40.9299 59.5247 45.227 55.6911 50.6813 55.6911C56.1356 55.6911 60.4326 59.5247 60.4326 64.3907C60.4326 69.2568 56.1356 73.0904 50.6813 73.0904C45.3928 73.2385 40.9299 69.2568 40.9299 64.3907ZM70.3501 102.287C59.6074 102.287 50.6813 94.4718 50.6813 84.7394C50.6813 83.4125 52.0037 82.2328 53.4909 82.2328H87.2085C88.6957 82.2328 90.0181 83.4126 90.0181 84.7394C90.0193 94.4718 81.0935 102.287 70.3504 102.287H70.3501ZM90.019 73.2381C84.5647 73.2381 80.2677 69.4045 80.2677 64.5385C80.2677 59.6724 84.5647 55.8388 90.019 55.8388C95.4733 55.8388 99.7704 59.6724 99.7704 64.5385C99.7704 69.2565 95.3075 73.2381 90.019 73.2381Z" fill="#40C351"/>
</svg>
