<svg width="141" height="141" viewBox="0 0 141 141" fill="none" xmlns="http://www.w3.org/2000/svg">
<path d="M56.7288 76.7991C56.7476 79.2803 54.4465 81.3038 51.5916 81.3203C48.7354 81.3366 46.4061 79.3376 46.3871 76.8576C46.3683 74.3764 48.6694 72.3529 51.5243 72.3364H51.5573C54.4005 72.3364 56.711 74.3293 56.7288 76.7991Z" fill="#40C351"/>
<path d="M91.9962 55.4617H49.3025C35.5828 55.1393 24.1582 64.5357 23.7788 76.453C24.1759 88.3643 35.5897 97.7513 49.3025 97.4442C57.7742 97.5108 65.7465 93.9723 70.6493 87.9712C75.5522 93.9734 83.5244 97.5118 91.9962 97.4442C105.709 97.7503 117.123 88.3632 117.52 76.453C117.14 64.5357 105.715 55.1392 91.9962 55.4617ZM51.5557 84.2566C46.8697 84.2566 43.0697 80.9566 43.0697 76.8848C43.0697 72.8141 46.8685 69.513 51.5557 69.513C56.2416 69.513 60.0417 72.8131 60.0417 76.8848C59.9875 80.9217 56.2039 84.1707 51.5557 84.1696V84.2566ZM89.74 84.2566C85.054 84.2566 81.254 80.9566 81.254 76.8848C81.254 72.8141 85.0528 69.513 89.74 69.513C94.4259 69.513 98.226 72.8131 98.226 76.8848C98.1718 80.9217 94.3882 84.1707 89.74 84.1696V84.2566ZM89.74 72.4221C86.8838 72.4221 84.5684 74.4334 84.5684 76.9147C84.5684 79.3959 86.8837 81.4073 89.74 81.4073C92.5963 81.4073 94.9116 79.3959 94.9116 76.9147V76.886C94.9481 74.4049 92.6634 72.3691 89.8072 72.3363H89.7401L89.74 72.4221Z" fill="#40C351"/>
<path d="M126.404 63.4669C118.03 44.8677 98.1454 32.07 75.2252 30.5266L77.1481 26.812C77.4321 26.3227 77.4321 25.7465 77.1481 25.2572C76.8441 24.7639 76.2927 24.423 75.6564 24.336L68.0977 23.1548L72.3737 18.0871C73.2775 18.3184 74.2154 18.4351 75.158 18.433C81.0164 18.4484 85.7801 14.3367 85.7976 9.24746C85.8153 4.15824 81.0821 0.0199397 75.2237 0.0047417C69.3653 -0.0104562 64.6016 4.10111 64.5841 9.19033C64.5735 11.9857 66.0251 14.6336 68.5289 16.3892L62.6283 23.4437C62.1687 23.9513 62.0674 24.6371 62.3631 25.2288C62.6365 25.8153 63.2374 26.2401 63.9538 26.3516L72.2407 27.5902L70.749 30.4694C46.0784 30.3854 23.8926 43.5014 14.931 63.4673C7.47237 63.4673 0.975397 70.2629 0.6445 78.8445C0.174368 84.4106 2.93508 89.8119 8.00295 93.2419C6.71746 96.4149 7.09215 99.9185 9.03039 102.831C11.6532 106.232 15.5545 108.737 20.0685 109.914C23.8966 115.219 28.8054 119.873 34.5541 123.649L33.8907 124.888C32.0467 128.457 29.551 131.743 26.4994 134.621C25.4413 135.489 25.1585 136.856 25.803 137.989C26.4911 139.069 27.7142 139.813 29.1174 140.005C38.2667 139.771 52.2868 131.769 52.2868 131.769L53.0161 131.971C54.3747 132.345 55.7674 132.662 57.16 132.92C61.5808 133.825 66.109 134.28 70.6514 134.274C98.0769 134.253 121.978 118.047 128.659 94.9398C132.227 94.384 135.352 92.5293 137.244 89.8435C139.653 86.56 140.812 82.702 140.559 78.8145C140.162 70.2913 133.797 63.4672 126.405 63.4672L126.404 63.4669ZM75.192 3.80179C78.6892 3.80179 81.5228 6.26449 81.5228 9.30136C81.5228 12.3394 78.6879 14.8009 75.192 14.8009C71.6948 14.8009 68.8612 12.3382 68.8612 9.30136C68.8612 6.26449 71.695 3.80179 75.192 3.80179ZM4.95267 78.9871C5.18479 73.0555 8.76447 68.2181 13.3726 67.4689C11.6888 72.3053 10.8393 77.3321 10.8534 82.3844C10.844 85.2217 11.1209 88.055 11.6818 90.8504C7.60361 89.3826 4.72056 84.5739 4.95252 78.9874L4.95267 78.9871ZM12.7753 101.044C11.491 99.1464 11.2024 96.8617 11.98 94.7665L12.6422 94.7675C13.5471 98.0482 14.8585 101.235 16.5541 104.27C15.0389 103.446 13.7498 102.346 12.7755 101.044L12.7753 101.044ZM70.6506 130.531C64.4033 130.433 58.208 129.529 52.2694 127.847C51.89 127.739 51.4964 127.806 51.2101 128.049C48.7546 130.135 36.3074 136.53 30.6411 136.289C34.7214 132.586 37.8204 128.156 39.7231 123.311C39.8822 122.904 39.7161 122.456 39.3143 122.206C38.2291 121.533 36.5748 120.447 36.1766 120.193C32.617 117.743 29.4215 114.919 26.6633 111.784C32.8091 112.856 39.0576 113.425 45.3247 113.483C46.087 114.884 47.7178 115.772 49.5018 115.758L53.7117 115.759C56.2839 115.947 58.5449 114.289 58.7617 112.054C58.9785 109.82 57.0697 107.856 54.4975 107.667C54.2359 107.648 49.5018 107.667 49.5018 107.667C47.8098 107.661 46.2462 108.455 45.4248 109.741C37.8957 109.729 30.4078 108.788 23.1827 106.948C18.05 99.5104 15.3449 90.9996 15.36 82.3278C15.3907 56.4224 38.9607 35.1592 68.7619 34.1529L65.9777 39.451C65.9777 39.451 65.4475 40.6025 67.2702 41.2934C69.093 41.9843 69.9555 40.7755 69.9555 40.7755L73.2699 34.1817C103.88 35.4826 127.477 58.0922 125.981 84.6834C124.535 110.361 100.146 130.534 70.5522 130.531L70.6506 130.531ZM133.629 87.7694C132.644 89.0602 131.235 90.0633 129.586 90.6487C130.148 87.8533 130.426 85.0202 130.414 82.1826C130.42 77.1518 129.582 72.1454 127.928 67.3245C132.37 68.2171 135.95 73.0832 136.215 78.8427C136.479 81.978 135.586 85.1059 133.663 87.7692L133.629 87.7694Z" fill="#40C351"/>
<path d="M69.2588 114.349C63.4689 114.27 58.843 110.136 58.9172 105.106C58.9172 103.913 60.0306 102.946 61.4033 102.946C62.776 102.946 63.8895 103.913 63.8895 105.106C63.8883 107.682 66.2919 109.771 69.2577 109.772C72.2235 109.773 74.6284 107.685 74.6296 105.109V105.106C74.6296 103.913 75.743 102.946 77.1157 102.946C78.4884 102.946 79.6019 103.913 79.6019 105.106C79.6749 110.137 75.0487 114.27 69.2588 114.349Z" fill="#40C351"/>
</svg>
