<svg width="125" height="126" viewBox="0 0 125 126" fill="none" xmlns="http://www.w3.org/2000/svg">
<path d="M62.5 0C79.0563 0 94.9938 6.5625 106.681 18.3125C118.431 30.0688 125 45.9375 125 62.5625C125 84.4375 113.494 104.75 94.7438 116.063C75.9938 127.375 52.6813 128 33.3125 117.688H33.1188C31.25 116.938 29.7438 115.625 27.9938 114.75C26.0625 113.938 23.8688 113.813 21.875 114.444C17.2438 116.063 12.5563 117.375 7.74375 118.5C5.24375 118.563 4.49375 117.063 4.49375 114.625C5.61875 109.688 7.11875 104.806 8.875 100.063C9.55625 98 9.375 95.8125 8.3125 93.8688L7.0625 91.4375C2.43125 82.625 0 72.8125 0 62.8813V62.5C0 45.9375 6.55625 30 18.3063 18.3125C30.0563 6.5625 45.9313 0 62.5 0ZM91.3063 54.5625C86.9313 54.5625 83.3125 58.125 83.3125 62.5625C83.3125 66.9375 86.9313 70.5625 91.3063 70.5625C95.7438 70.5625 99.3063 66.9375 99.3063 62.5625C99.3063 58.125 95.7438 54.5625 91.3063 54.5625ZM62.5 54.5625C58.0625 54.5625 54.4938 58.125 54.4938 62.5625C54.4938 66.9375 58.0625 70.5625 62.5 70.5625C66.9375 70.5625 70.4938 66.9375 70.4938 62.5625C70.4938 58.125 66.9375 54.5625 62.5 54.5625ZM33.6813 54.5625C29.2438 54.5625 25.6813 58.125 25.6813 62.5625C25.6813 66.9375 29.2438 70.5625 33.6813 70.5625C38.0563 70.5625 41.6875 66.9375 41.6875 62.5625C41.6875 58.125 38.0563 54.5625 33.6813 54.5625Z" fill="#40C351"/>
</svg>
