<svg width="150" height="150" viewBox="0 0 150 150" fill="none" xmlns="http://www.w3.org/2000/svg">
<path d="M109.312 47.7834C113.912 42.2101 118.479 29.2059 99.3111 44.9967C72.0756 67.7643 45.2317 89.1385 45.2317 89.1385C42.4685 90.6522 39.4812 91.4737 36.4493 91.5535C33.4174 91.6333 30.4035 90.9698 27.5886 89.6029C16.0876 85.423 2.66154 79.8497 2.66154 79.8497C2.66154 79.8497 -6.50587 72.8731 9.18708 65.4421C9.18708 65.4421 75.5342 32.4569 98.5444 20.8359C107.362 16.1915 137.273 1.32952 137.273 1.32952C137.273 1.32952 151.082 -5.1827 149.932 10.6183C149.549 17.1204 146.482 39.898 143.415 64.5132C138.806 99.3561 133.822 137.46 133.822 137.46C133.822 137.46 133.056 148.142 126.538 150C119.562 149.857 112.821 146.917 107.37 141.64C105.837 140.247 78.6094 119.337 68.6336 109.119C67.6188 108.287 66.7944 107.156 66.2371 105.834C65.6797 104.511 65.4075 103.04 65.4457 101.555C65.484 100.071 65.8315 98.623 66.4559 97.3452C67.0803 96.0675 67.9613 95.0018 69.017 94.2473C82.8514 78.9209 99.3445 59.8688 109.312 47.7834Z" fill="#47CE07"/>
</svg>
