<svg width="150" height="150" viewBox="0 0 150 150" fill="none" xmlns="http://www.w3.org/2000/svg">
<path d="M118.75 25H31.25C26.2772 25 21.5081 26.9754 17.9917 30.4917C14.4754 34.0081 12.5 38.7772 12.5 43.75V106.25C12.5 111.223 14.4754 115.992 17.9917 119.508C21.5081 123.025 26.2772 125 31.25 125H118.75C123.723 125 128.492 123.025 132.008 119.508C135.525 115.992 137.5 111.223 137.5 106.25V43.75C137.5 38.7772 135.525 34.0081 132.008 30.4917C128.492 26.9754 123.723 25 118.75 25ZM118.75 37.5L78.125 65.4375C77.1749 65.9861 76.0971 66.2748 75 66.2748C73.9029 66.2748 72.8251 65.9861 71.875 65.4375L31.25 37.5H118.75Z" fill="#40C351"/>
</svg>
