<svg width="122" height="81" viewBox="0 0 122 81" fill="none" xmlns="http://www.w3.org/2000/svg">
<path d="M47.2869 30.2558C44.5565 30.282 42.3639 32.4517 42.3893 35.1025C42.4146 37.7533 44.6483 39.8806 47.3788 39.8545C50.1092 39.8284 52.3018 37.6587 52.2765 35.0079C52.252 32.3571 50.0174 30.2297 47.2869 30.2558ZM46.0724 35.0672C45.3629 35.0874 44.7706 34.5448 44.751 33.8561C44.7306 33.1673 45.2899 32.5919 45.9994 32.5726C46.7088 32.5524 47.3012 33.095 47.3207 33.7838L47.3209 33.8072C47.3274 34.4835 46.7679 35.0363 46.0721 35.043L46.0724 35.0672Z" fill="#40C351"/>
<path d="M74.6778 29.9938C71.9473 30.0199 69.7548 32.1896 69.7801 34.8404C69.8055 37.4912 72.0392 39.6186 74.7696 39.5925C77.5001 39.5664 79.6927 37.3966 79.6673 34.7458C79.6419 32.095 77.4083 29.9677 74.6778 29.9938ZM73.4382 34.8054C72.7287 34.8122 72.1474 34.2586 72.1408 33.5697C72.1342 32.8809 72.7048 32.3163 73.4143 32.3095C74.1239 32.3027 74.7052 32.8563 74.7118 33.5451C74.7183 34.2214 74.1596 34.7743 73.463 34.7818L73.438 34.782L73.4382 34.8054Z" fill="#40C351"/>
<path d="M66.3735 40.5865C65.4916 40.6075 64.7869 41.3057 64.7814 42.1621C64.7999 44.0972 63.1992 45.6814 61.2058 45.7011C59.2124 45.7201 57.5816 44.167 57.5624 42.2318L57.5624 42.2309C57.4438 41.364 56.6231 40.7549 55.7292 40.8706C54.9877 40.9673 54.4086 41.5404 54.3232 42.2619C54.3566 45.9331 57.4484 48.8818 61.2308 48.8482C65.0124 48.8137 68.0514 45.8105 68.0189 42.1384L68.0189 42.1309C67.9985 41.2655 67.265 40.5777 66.3736 40.5863L66.3735 40.5865Z" fill="#40C351"/>
<path d="M80.2578 16.3562L41.5707 16.7263C32.5835 16.8257 25.3729 23.9723 25.4564 32.6974L25.6031 48.0323C25.6583 53.8019 30.4385 59.2927 36.3816 59.2491L86.0692 58.7738C92.0162 58.7035 96.8639 53.1247 96.8225 47.3509L96.6758 32.0161C96.5915 23.2901 89.2454 16.2829 80.258 16.3562L80.2578 16.3562ZM93.6087 47.4299C93.6475 51.4861 90.2168 55.6617 86.0398 55.7017L36.3523 56.177C32.1844 56.2035 28.8565 52.0959 28.8178 48.0497L28.6707 32.6662C28.6037 25.6637 34.3888 19.9278 41.6017 19.8464L80.2887 19.4763C87.5112 19.4072 93.4196 25.0353 93.4867 32.0461L93.6087 47.4299Z" fill="#40C351"/>
<path d="M120.583 6.34639C120.083 2.96188 116.85 0.612841 113.363 1.10157C109.877 1.58947 107.502 4.72289 107.957 8.11362C108.476 11.9844 112.02 13.0914 112.812 13.2857L113.515 16.9269L110.634 15.5859C109.921 15.2227 109.06 15.5005 108.664 16.1814C108.484 16.4929 107.995 18.8991 107.995 18.8991C106.67 18.3208 105.255 17.961 103.807 17.8351C101.93 9.31292 94.1033 3.27373 85.127 3.42068L37.0463 3.8815C28.0749 3.92464 20.3773 10.104 18.6458 18.6506C16.9119 18.843 15.2348 19.3739 13.7166 20.2096L13.0225 17.4079C12.8296 16.5358 11.9522 16.0361 10.9124 16.4922L8.15617 17.8864L8.74324 14.359C14.0408 12.8267 14.14 8.12968 13.1583 5.73746C11.5533 1.82778 6.13015 0.882543 3.15541 3.3169C0.352238 5.38874 -0.156928 9.31865 1.97651 12.0397C2.91052 13.2312 4.23905 14.1158 5.74999 14.4162L4.47603 20.6815C4.18529 21.9265 5.67261 22.2798 6.63799 21.8846L10.6726 19.8303L11.1634 22.0095C8.47756 24.5365 6.97435 28.0197 7.0029 31.65C6.96488 38.1311 11.8643 43.6409 18.4734 44.5486L18.5072 48.0767C18.7383 58.081 27.259 66.0157 37.5645 65.8232L47.9226 65.7241C47.9271 69.3478 46.9463 72.9089 45.0794 76.0476C43.3538 78.7218 46.1663 80.421 48.0835 79.9314C56.1766 77.8626 62.2756 69.4208 64.5137 65.5947L85.6211 65.3643C95.9346 65.372 104.31 57.2684 104.335 47.2565L104.303 43.9211C110.977 42.9607 115.874 37.3262 115.722 30.7783C115.731 26.7677 113.878 22.9684 110.679 20.4341L110.962 18.9431L115.035 20.9198C116.34 21.6147 117.344 20.6457 117.198 19.6267L115.704 13.3778C118.964 12.6502 121.093 9.60286 120.582 6.39503L120.583 6.34639ZM4.44318 10.2943C3.29628 8.84042 3.54382 6.77629 5.0325 5.64964C6.55884 4.49492 8.76524 4.76009 9.91307 6.21403C10.4413 6.90042 10.7096 7.82031 10.6091 8.67091C10.3936 10.4794 8.75569 11.7749 6.76202 11.5874C5.22275 11.3895 4.44318 10.2943 4.44318 10.2943ZM18.2826 21.9658L18.4697 41.5251C12.8682 40.4026 9.26657 35.0838 10.4259 29.6442C11.2486 25.7824 14.321 22.7428 18.2817 21.8702C18.2817 21.8702 18.3315 21.9417 18.3318 21.966L18.2826 21.9658ZM101.053 47.648C100.696 55.7218 93.8913 62.1153 85.567 62.1966L62.8179 62.4142C62.5601 62.4167 62.3208 62.5479 62.1857 62.761L59.9679 66.2579C58.97 67.9474 50.4543 77.0294 48.8143 76.2288C50.3588 73.2724 51.2689 70.0668 51.7903 66.7923C51.94 65.8525 51.9934 63.2369 51.9733 63.0271C51.9863 62.7633 51.7678 62.5444 51.4962 62.547L37.3867 62.682C29.0422 62.5366 22.2671 56.0939 21.944 47.9973L21.693 21.7656C21.9801 13.653 28.7185 7.15478 37.0767 6.92995L85.1332 6.4702C93.5749 6.69748 100.406 13.2034 100.802 21.393L101.053 47.648ZM112.585 30.7373C112.7 35.5637 109.208 39.7675 104.324 40.6806L104.136 21.0257C112.086 21.7399 112.585 30.7373 112.585 30.7373ZM114.764 10.4111C113.889 10.525 113.003 10.3108 112.286 9.81117C110.774 8.71482 110.456 6.63932 111.574 5.16198C112.1 4.44124 112.911 3.96472 113.811 3.84475L114.305 3.84003C116.203 3.84196 117.777 5.33701 117.736 7.17893C117.685 9.53411 115.661 10.2801 114.764 10.4109L114.764 10.4111Z" fill="#40C351"/>
</svg>
