<svg width="140" height="140" viewBox="0 0 140 140" fill="none" xmlns="http://www.w3.org/2000/svg">
<path d="M43.0825 64.9857C38.7086 64.9857 35.1622 68.4746 35.1622 72.7777C35.1622 77.0807 38.7086 80.5696 43.0825 80.5696C47.4564 80.5696 51.0028 77.0807 51.0028 72.7777C51.0028 68.4746 47.4575 64.9857 43.0825 64.9857ZM43.7772 76.7028C43.5467 76.7222 43.3141 76.7222 43.0835 76.7028C40.855 76.5148 39.2038 74.585 39.396 72.3927C39.5643 70.4618 41.1209 68.9305 43.0835 68.7649C45.3121 68.5759 47.2738 70.2003 47.4646 72.3927C47.6557 74.5851 46.0047 76.515 43.7772 76.7028Z" fill="#40C351"/>
<path d="M93.6991 64.9857C89.3252 64.9694 85.7663 68.445 85.7498 72.7481C85.7332 77.0512 89.2662 80.5534 93.6401 80.5686C98.014 80.5849 101.574 77.1092 101.589 72.8062V72.7765C101.589 68.4858 98.0616 65.0019 93.6991 64.9857ZM97.7189 72.7481C97.7355 74.9324 95.9494 76.7151 93.7291 76.7313H93.699V76.7017C91.4622 76.718 89.6367 74.9476 89.6199 72.747C89.6033 70.5464 91.4029 68.7504 93.6397 68.734C95.8766 68.7176 97.7021 70.4881 97.7189 72.6887L97.7189 72.7481Z" fill="#40C351"/>
<path d="M59.2511 72.7769C59.2677 62.6986 50.9757 54.5143 40.7314 54.4989C30.4871 54.4825 22.1691 62.6392 22.1524 72.7185C22.1358 82.7969 30.4278 90.9801 40.6721 90.9966H40.7022C50.9279 90.9802 59.2189 82.8369 59.2511 72.7769ZM40.7024 87.1888C32.5952 87.1888 26.0238 80.7229 26.0238 72.7481C26.0238 64.7723 32.5963 58.3074 40.7024 58.3074C48.8096 58.3074 55.381 64.7733 55.381 72.7481V72.7777C55.3643 80.7402 48.7971 87.1888 40.7024 87.1888Z" fill="#40C351"/>
<path d="M95.9933 54.587C85.749 54.587 77.4435 62.7569 77.4435 72.8362C77.4435 82.9145 85.748 91.0855 95.9933 91.0855C106.238 91.0855 114.543 82.9156 114.543 72.8362V72.778C114.493 62.7282 106.208 54.6024 95.9933 54.587ZM110.672 72.8352C110.623 80.7762 104.065 87.1891 95.9933 87.188V87.2463C87.8861 87.2463 81.3148 80.7803 81.3148 72.8055C81.3148 64.8297 87.8872 58.3648 95.9933 58.3648C104.1 58.3648 110.672 64.8308 110.672 72.8055V72.8352Z" fill="#40C351"/>
<path d="M77.6528 95.4783C74.3558 97.2498 70.7802 98.3031 67.0233 98.3193C62.8538 98.3541 58.776 97.1159 55.3522 94.7753C55.7448 94.5771 56.1529 94.4105 56.5735 94.2777C57.3959 94.0428 57.8684 93.1969 57.6306 92.3887C57.3918 91.5796 56.532 91.1137 55.7105 91.3487C52.8205 92.0506 50.5423 94.2358 49.7562 97.0607C49.6897 97.4887 49.7105 98.2335 50.2941 98.5798C51.4467 99.2653 52.5433 97.9168 53.0315 96.6203C57.0284 99.5799 61.904 101.166 66.9061 101.132C71.2218 101.125 75.4639 100.036 79.2325 97.9678C79.9313 97.5387 80.1899 96.6049 79.7091 95.947C78.7548 94.6434 77.653 95.4781 77.653 95.4781L77.6528 95.4783Z" fill="#40C351"/>
<path d="M134.073 63.1105H134.043H130.291V61.6751C130.291 48.728 118.62 38.2409 104.297 38.2409H79.0484V36.7759C79.0484 33.5404 76.3828 30.918 73.094 30.918L67.9143 30.919C67.1303 27.1604 67.9839 23.2507 70.2664 20.1398L73.7203 24.3285C74.6403 25.4186 76.0132 24.9578 76.4295 24.6217L88.3395 15.1023C89.1599 14.4536 89.2918 13.2736 88.6324 12.4666C88.6241 12.4563 88.6158 12.4461 88.6075 12.4359L78.9603 0.718815C78.3112 -0.0964465 77.1139 -0.239481 76.2853 0.399034C76.2739 0.408229 76.2625 0.417424 76.2511 0.426619L64.341 9.91752C63.5206 10.5938 63.4012 11.7922 64.0731 12.6127L68.3308 17.7974C65.3172 21.4803 64.0691 26.2646 64.907 30.9202H61.3639C58.0751 30.9202 55.4095 33.5426 55.4095 36.7781V38.2431H35.8182C21.4969 38.2431 9.82478 48.7587 9.82478 61.6773V63.1127L6.01365 63.1107C2.7249 63.078 0.0321671 65.675 0 68.9105V68.9984V92.227C0 95.4625 2.66561 98.0849 5.95436 98.0849H9.8713C10.3573 110.621 21.8042 120.699 35.8182 120.699H51.3897C51.5538 126.099 50.0709 131.425 47.1319 135.989C46.4943 136.892 46.5805 138.111 47.3407 138.918C48.5837 140.268 50.4372 139.973 50.4372 139.973C62.3473 137.512 70.5645 124.975 73.3934 120.727H104.3C118.622 120.727 130.294 110.212 130.294 97.293V98.142H134.046C137.334 98.142 140 95.5196 140 92.2841V68.9971C140.016 65.7627 137.362 63.127 134.073 63.1105L134.073 63.1105ZM68.2711 11.6165L77.204 4.49882L84.4097 13.287L75.4768 20.4047L68.2711 11.6165ZM59.3383 36.7199C59.3383 35.5716 60.2843 34.6398 61.4526 34.6398H73.1539C74.3211 34.6398 75.2682 35.5705 75.2682 36.7199V38.1849H59.249L59.3383 36.7199ZM6.0127 94.2788C4.84549 94.2952 3.88595 93.3767 3.86934 92.2284V92.1988V68.9997C3.86934 67.8514 4.81537 66.9197 5.98258 66.9197H9.82376V94.279L6.0127 94.2788ZM104.327 117.214H71.6335C71.2639 117.214 70.9201 117.403 70.727 117.714L67.7923 122.428C63.9365 128.902 57.9643 133.899 50.8509 136.605C53.4263 132.466 54.9289 127.769 55.228 122.925V118.435C55.228 117.857 54.7524 117.389 54.1646 117.389H35.8153C23.6083 117.389 13.6931 108.455 13.6931 97.4406V61.6755C13.6931 50.6614 23.6083 41.6985 35.8153 41.6985H104.297C116.504 41.6985 126.419 50.6622 126.419 61.6755L126.449 97.2654C126.448 108.28 116.533 117.215 104.326 117.215L104.327 117.214ZM134.072 94.3084H130.291V66.9203H134.043C135.21 66.9203 136.157 67.851 136.157 69.0003L136.187 92.2289C136.186 93.3762 135.239 94.3079 134.072 94.3079L134.072 94.3084Z" fill="#40C351"/>
</svg>
