<svg width="201" height="201" viewBox="0 0 201 201" fill="none" xmlns="http://www.w3.org/2000/svg">
<path d="M53.8343 34.6689C56.3411 40.3435 53.1276 48.8956 46.6582 53.7816C40.1888 58.6615 32.9184 58.0269 30.4116 52.3522C27.9049 46.6775 31.1184 38.1254 37.5878 33.2394C44.0525 28.3595 51.3276 29.0003 53.8343 34.6689Z" fill="#043340"/>
<path d="M35.2648 43.1901C34.28 41.6744 31.811 35.9627 24.2061 18.2424L29.4127 13.1038C35.3496 20.8918 43.0064 31.1383 44.2598 32.6479C44.4765 32.9128 35.2648 43.1901 35.2648 43.1901Z" fill="#043340"/>
<path d="M34.3414 13.0669C34.3414 19.9245 30.0913 25.4822 24.847 25.4822C19.6026 25.4822 15.3525 19.9245 15.3525 13.0669C15.3525 6.20917 19.6026 0.65155 24.847 0.65155C30.0866 0.65155 34.3414 6.20917 34.3414 13.0669Z" fill="#C7D8EA"/>
<path opacity="0.46" d="M24.8423 0.65155C24.0837 0.65155 23.3486 0.768604 22.6418 0.984255C26.826 2.28432 29.9405 7.20116 29.9405 13.0669C29.9405 18.9325 26.826 23.8494 22.6418 25.1494C23.3486 25.3712 24.0837 25.4822 24.8423 25.4822C30.0866 25.4822 34.3367 19.9245 34.3367 13.0669C34.3414 6.20917 30.0866 0.65155 24.8423 0.65155Z" fill="#A3B6BF"/>
<path d="M22.6465 25.1494C32.4754 27.6633 38.0354 11.4587 30.5766 3.58437C28.4279 1.26767 25.4595 0.269518 22.6465 0.990407C28.3667 -1.17842 34.6146 4.47779 34.6618 13.073C34.6099 21.5696 28.4138 27.3367 22.6465 25.1494Z" fill="#043340"/>
<path opacity="0.46" d="M24.8423 12.0872C24.8423 14.9153 23.0894 17.2135 20.922 17.2135C18.7592 17.2135 17.0017 14.9215 17.0017 12.0872C17.0017 9.2591 18.7592 6.96088 20.922 6.96088C23.0894 6.96088 24.8423 9.2591 24.8423 12.0872Z" fill="#C7D8EA"/>
<path d="M148.35 36.2524C145.843 41.927 149.057 50.4791 155.526 55.3651C161.995 60.245 169.266 59.6042 171.772 53.9357C174.279 48.261 171.066 39.7089 164.596 34.8229C158.127 29.943 150.856 30.5838 148.35 36.2524Z" fill="#043340"/>
<path d="M166.915 44.7736C167.899 43.2579 170.368 37.5463 177.973 19.826L172.767 14.6873C166.462 22.956 158.542 33.4119 158.146 33.7139C158.108 33.7508 166.915 44.7736 166.915 44.7736Z" fill="#043340"/>
<path d="M167.843 14.6504C167.843 21.5081 172.093 27.0657 177.337 27.0657C182.581 27.0657 186.832 21.5081 186.832 14.6504C186.832 7.79269 182.581 2.23505 177.337 2.23505C172.093 2.22889 167.843 7.79269 167.843 14.6504Z" fill="#C7D8EA"/>
<path opacity="0.46" d="M177.337 2.22882C178.096 2.22882 178.831 2.34587 179.538 2.56153C175.353 3.86159 172.239 8.77843 172.239 14.6441C172.239 20.5098 175.353 25.4266 179.538 26.7267C178.831 26.9485 178.096 27.0594 177.337 27.0594C172.093 27.0594 167.843 21.5018 167.843 14.6441C167.843 7.7926 172.093 2.22882 177.337 2.22882Z" fill="#A3B6BF"/>
<path d="M179.538 26.7329C169.709 29.2468 164.149 13.0422 171.608 5.16787C173.756 2.85116 176.725 1.85302 179.538 2.5739C173.817 0.405076 167.569 6.06127 167.522 14.6565C167.569 23.1531 173.77 28.9202 179.538 26.7329Z" fill="#043340"/>
<path opacity="0.46" d="M177.337 13.6707C177.337 16.4988 179.095 18.797 181.258 18.797C183.425 18.797 185.178 16.5049 185.178 13.6707C185.178 10.8364 183.425 8.54437 181.258 8.54437C179.095 8.54437 177.337 10.8364 177.337 13.6707Z" fill="#C7D8EA"/>
<path d="M100.35 175.636C155.578 175.636 200.35 149.345 200.35 116.912C200.35 84.479 155.578 58.1871 100.35 58.1871C45.1215 58.1871 0.349976 84.479 0.349976 116.912C0.349976 149.345 45.1215 175.636 100.35 175.636Z" fill="#043340"/>
<path d="M188.674 144.472C186.902 146.431 184.942 148.317 182.817 150.134C188 130.646 190.243 109.013 189.701 90.51C191.336 92.4139 192.797 94.3732 194.079 96.3942C194.031 111.644 192.26 128.489 188.674 144.472Z" fill="#A2BFDC"/>
<path d="M6.64504 96.3511C7.93138 94.3301 9.40149 92.3646 11.0412 90.4546C10.2025 109.13 13.0626 131.139 18.7734 150.892C16.5588 149.062 14.5186 147.152 12.6668 145.174C8.67115 128.89 6.5885 111.761 6.64504 96.3511Z" fill="#A2BFDC"/>
<path d="M73.1673 200.097C91.6897 196.739 110.481 196.222 129.154 198.594C172.102 204.053 187.388 119.931 181.262 77.5895C178.138 55.9998 159.738 40.5284 144.203 35.7224C116.045 27.0163 85.9694 26.468 57.6652 34.2314C42.4789 38.4581 27.4574 51.9332 21.5441 71.2925C9.19895 111.748 31.2128 207.713 73.1673 200.097Z" fill="#A2BFDC"/>
<path opacity="0.46" d="M21.5533 71.2986C24.4747 61.7299 29.6248 53.5967 35.9198 47.3121C33.8089 50.9966 32.0419 55.0016 30.732 59.3023C18.3822 99.7521 40.3961 195.717 82.3506 188.101C100.873 184.743 119.664 184.226 138.342 186.598C148.529 187.892 157.161 184.145 164.323 177.109C155.804 191.471 144.175 200.498 129.168 198.594C110.495 196.222 91.6989 196.739 73.1813 200.097C31.2127 207.713 9.1988 111.748 21.5533 71.2986Z" fill="#A3B6BF"/>
<path d="M138.507 67.7373C113.129 65.1557 87.6374 65.1557 62.2593 67.7373C21.5676 71.8716 7.5545 159.826 81.1586 173.012C104.506 177.195 132.542 175.008 153.005 158.428C185.051 132.463 173.629 71.3048 138.507 67.7373Z" fill="#C7D8EA"/>
<path d="M101.547 173.394C94.8795 173.394 88.0709 172.778 81.3093 171.57C42.6485 164.645 29.4317 137.331 29.9547 114.084C30.4871 90.3129 44.4154 71.0091 62.3488 69.1853C74.9483 67.9037 87.7458 67.2568 100.383 67.2568C113.02 67.2568 125.818 67.9037 138.417 69.1853C153.764 70.7442 166.038 84.4534 169.695 104.102C173.535 124.737 166.75 145.575 152.416 157.189C135.892 170.584 115.635 173.394 101.547 173.394Z" fill="#043340"/>
<g opacity="0.34">
<path d="M107.446 46.4125C107.88 51.4464 119.537 53.8679 133.262 56.1907C147.002 58.3472 158.758 59.7459 160.125 55.0078C161.51 50.3928 150.564 40.6762 134.982 38.1747C119.41 35.5869 106.97 41.4895 107.446 46.4125Z" fill="#A2BFDC"/>
</g>
<path d="M100.736 159.654C86.0306 159.654 73.6054 144.589 71.8243 124.614C71.6924 123.104 72.5169 121.736 73.6713 121.558C74.8305 121.385 126.637 121.385 127.792 121.558C128.946 121.736 129.776 123.098 129.639 124.614C127.867 144.589 115.442 159.654 100.736 159.654Z" fill="#00FFFF"/>
<path d="M67.8663 94.786C67.8663 98.0947 65.8167 100.781 63.2817 100.781C60.7514 100.781 58.697 98.0947 58.697 94.786C58.697 91.4774 60.7514 88.791 63.2817 88.791C65.8119 88.791 67.8663 91.4712 67.8663 94.786Z" fill="#00FFFF"/>
<path d="M142.771 94.786C142.771 98.0947 140.721 100.781 138.186 100.781C135.651 100.781 133.602 98.0947 133.602 94.786C133.602 91.4774 135.656 88.791 138.186 88.791C140.716 88.791 142.771 91.4712 142.771 94.786Z" fill="#00FFFF"/>
</svg>
