<svg width="60" height="55" viewBox="0 0 147 137" fill="none" xmlns="http://www.w3.org/2000/svg">
    <path d="M108.772 78.7221C108.486 78.594 97.7694 73.6757 95.8651 73.037C95.0876 72.7768 94.2548 72.5228 93.3689 72.5228C91.9218 72.5228 90.7062 73.1949 89.7593 74.5151C88.6888 75.9981 85.4481 79.5285 84.4468 80.5831C84.316 80.7224 84.1375 80.8887 84.0306 80.8887C83.9347 80.8887 82.2762 80.2522 81.7741 80.0489C70.278 75.3949 61.552 64.2032 60.3555 62.3159C60.1846 62.0445 60.1775 61.9213 60.176 61.9213C60.218 61.7777 60.6046 61.4165 60.8041 61.2301C61.3878 60.6919 62.0202 59.9824 62.6321 59.2961C62.9218 58.9709 63.212 58.6453 63.4969 58.3384C64.3846 57.3759 64.7798 56.6286 65.238 55.763L65.4781 55.3133C66.5968 53.2418 65.6413 51.4938 65.3325 50.9293C65.079 50.4569 60.554 40.2789 60.0729 39.2096C58.916 36.6293 57.3873 35.4278 55.263 35.4278C55.0659 35.4278 55.263 35.4278 54.4363 35.4603C53.4298 35.4999 47.9483 36.1724 45.5247 37.5963C42.9546 39.1064 38.6066 43.9201 38.6066 52.3856C38.6066 60.0047 43.7946 67.1985 46.022 69.9345C46.0774 70.0034 46.179 70.1436 46.3265 70.3446C54.8568 81.9549 65.4909 90.5592 76.2711 94.5727C86.6494 98.4363 91.5639 98.8829 94.3578 98.8829C94.3583 98.8829 94.3583 98.8829 94.3583 98.8829C95.5324 98.8829 96.4722 98.797 97.3012 98.721L97.8271 98.6742C101.412 98.378 109.291 94.5731 111.083 89.9316C112.495 86.2758 112.867 82.2814 111.928 80.8318C111.285 79.8461 110.176 79.3501 108.772 78.7221Z" fill="#095E54" />
    <path d="M74.805 0C34.9928 0 2.60317 29.9594 2.60317 66.7844C2.60317 78.6949 6.0233 90.3537 12.5023 100.558L0.1013 134.65C-0.1297 135.285 0.0421181 135.988 0.546596 136.467C0.910755 136.813 1.40473 137 1.90921 137C2.10251 137 2.29723 136.973 2.48719 136.916L40.6309 125.62C51.0688 130.818 62.8661 133.561 74.8055 133.561C114.614 133.562 147 103.605 147 66.7844C147 29.9594 114.614 0 74.805 0ZM74.805 119.65C63.5705 119.65 52.6892 116.627 43.3356 110.906C43.021 110.714 42.6559 110.615 42.2884 110.615C42.0942 110.615 41.8994 110.643 41.71 110.699L22.6023 116.359L28.7706 99.3993C28.9701 98.8504 28.8704 98.245 28.5029 97.7771C21.38 88.7066 17.6148 77.9899 17.6148 66.7844C17.6148 37.6305 43.2702 13.9117 74.8046 13.9117C106.335 13.9117 131.988 37.6305 131.988 66.7844C131.988 95.9347 106.336 119.65 74.805 119.65Z" fill="#095E54" />
</svg>